<?xml version="1.0" encoding="utf-8"?>
<!-- Generator: Adobe Illustrator 27.5.0, SVG Export Plug-In . SVG Version: 6.00 Build 0)  -->
<svg version="1.1" id="Layer_1" xmlns="http://www.w3.org/2000/svg" xmlns:xlink="http://www.w3.org/1999/xlink" x="0px" y="0px"
	 viewBox="0 0 900 900" style="enable-background:new 0 0 900 900;" xml:space="preserve">
<radialGradient id="SVGID_1_" cx="449.4985" cy="573.293" r="787.0041" gradientUnits="userSpaceOnUse">
	<stop  offset="0" style="stop-color:#ED9244"/>
	<stop  offset="0.1628" style="stop-color:#D97046"/>
	<stop  offset="0.3429" style="stop-color:#C75248"/>
	<stop  offset="0.52" style="stop-color:#BA3C49"/>
	<stop  offset="0.691" style="stop-color:#B32F4A"/>
	<stop  offset="0.8489" style="stop-color:#B02B4A"/>
	<stop  offset="1" style="stop-color:#AF2A49"/>
</radialGradient>
<rect x="-1.002" y="-1.952" style="fill:url(#SVGID_1_);" width="901" height="901.952"/>
<g>
	
		<radialGradient id="SVGID_00000052089335337593032450000010028107731467978667_" cx="926.3317" cy="9733.5107" r="212.6667" gradientTransform="matrix(1.6368 0 0 0.3644 -1066.2197 -2749.3301)" gradientUnits="userSpaceOnUse">
		<stop  offset="0" style="stop-color:#FFFFFF"/>
		<stop  offset="0.0168" style="stop-color:#FAFAFA"/>
		<stop  offset="0.1852" style="stop-color:#CCCCCC"/>
		<stop  offset="0.3542" style="stop-color:#A6A6A6"/>
		<stop  offset="0.5214" style="stop-color:#898989"/>
		<stop  offset="0.686" style="stop-color:#747474"/>
		<stop  offset="0.8469" style="stop-color:#676767"/>
		<stop  offset="1" style="stop-color:#636363"/>
	</radialGradient>
	
		<ellipse style="fill:url(#SVGID_00000052089335337593032450000010028107731467978667_);" cx="450" cy="797.561" rx="348.106" ry="77.493"/>
	<g>
		<path style="fill:#B13044;" d="M511.415,804.343c0,9.219-28.923,16.694-64.594,16.694c-35.677,0-64.6-7.475-64.6-16.694
			c0-9.219,28.923-16.693,64.6-16.693C482.492,787.649,511.415,795.124,511.415,804.343z"/>
		<path style="opacity:0.3;fill:#6FD8E5;" d="M512.125,641.608l0.502-1.633h-0.702c-2.422,3.141-4.847,6.53-4.847,6.53
			c2.912,6.461,9.855,24.508-3.414,30.285c-4.395,1.914-3.667,2.443-0.611,2.13c0.727-0.249,1.407-0.552,2.029-0.94
			c9.173-2.03,15.535-3.893,15.535-7.956c0-1.199-0.068-1.862-0.648-3.921C518.077,659.385,513.674,646.206,512.125,641.608z"/>
		<path style="fill:#9C7F61;" d="M520.618,670.023c0-1.199-0.068-1.862-0.648-3.921c-1.892-6.718-6.296-19.896-7.844-24.495
			l0.502-1.633h-1.053H381.986h-1.053l0.501,1.633c-1.548,4.598-5.952,17.776-7.844,24.495c-0.581,2.059-0.648,2.722-0.648,3.921
			c0,12.059,56,13.54,75.368,14.093c16.559,0.473,30.173-1.844,40.539-3.339c6.958-1.004,12.542-0.494,16.234-2.798
			C514.255,675.949,520.618,674.087,520.618,670.023z"/>
		<path style="fill:#9B3248;" d="M448.867,664.723c28.223-0.043,56.222-4.747,67.721-9.595c-1.752-5.438-3.575-10.886-4.462-13.52
			l0.502-1.633h-1.053H381.986h-1.053l0.501,1.633c-0.842,2.5-2.527,7.536-4.194,12.691
			C387.617,659.498,418.359,664.77,448.867,664.723z"/>
		<g>
			<g>
				<path style="fill:#953551;" d="M396.067,742.466c0,0,9.02,18.245,16.078,23.113c7.586,5.232,28.977,7.289,38.188,7.046
					c7.248-0.192,25.089-2.066,31.154-6.041c6.893-4.516,17.082-21.103,17.082-21.103L396.067,742.466z"/>
				<path style="fill:#C54A51;" d="M379.976,734.427c0,0,8.367,9.295,12.059,11.053c12.383,5.898,39.191,8.04,54.266,8.04
					c66.325,0,69.34-20.099,69.34-20.099L379.976,734.427z"/>
				<path style="fill:#9C7F61;" d="M520.618,699.16c0-1.199-0.068-1.862-0.648-3.921c-1.892-6.718-6.296-19.896-7.844-24.494
					l0.502-1.633h-1.053H381.986h-1.053l0.501,1.633c-1.548,4.598-5.952,17.776-7.844,24.494c-0.581,2.059-0.648,2.722-0.648,3.921
					c0,12.059,56,13.54,75.368,14.093c16.559,0.473,30.173-1.844,40.539-3.339c6.958-1.004,12.542-0.493,16.234-2.798
					C514.255,705.085,520.618,703.223,520.618,699.16z"/>
				<path style="fill:#9B3248;" d="M448.867,694.605c28.395-0.043,56.566-4.805,67.932-9.683c-1.815-5.651-2.883-8.85-3.806-11.59
					l-25.066,6.628l-40.044,4.157l-67.587-9.977c-0.876,2.602-1.529,4.558-3.262,9.931
					C387.194,689.306,418.143,694.652,448.867,694.605z"/>
				<path style="fill:#9C7F61;" d="M520.618,728.059c0-1.199-0.068-1.862-0.648-3.921c-1.892-6.718-6.296-19.896-7.844-24.495
					l0.502-1.633h-1.053H381.986h-1.053l0.501,1.633c-1.548,4.598-5.952,17.776-7.844,24.495c-0.581,2.059-0.648,2.722-0.648,3.921
					c0,12.059,56,13.54,75.368,14.093c16.559,0.473,30.173-1.844,40.539-3.339c6.958-1.004,12.542-0.494,16.234-2.798
					C514.255,733.984,520.618,732.122,520.618,728.059z"/>
				<path style="fill:#E04C5A;" d="M520.147,724.386c-0.808-2.87-2.075-6.919-3.382-10.974c-1.635,0.689-3.613,1.375-5.868,2.045
					c1.273,5.794,1.357,12.264-2.648,16.562c6.821-1.898,11.317-3.898,12.343-5.634c0.05,0.198,0.089,0.381,0.135,0.572
					C520.649,726.319,520.488,725.595,520.147,724.386z"/>
				<path style="fill:#9B3248;" d="M448.867,724.048c28.395-0.043,56.566-4.805,67.932-9.683c-1.815-5.651-2.883-8.85-3.806-11.59
					l-25.066,6.628l-40.044,4.157l-67.587-9.977c-0.876,2.602-1.529,4.558-3.262,9.931
					C387.194,718.749,418.143,724.095,448.867,724.048z"/>
			</g>
			<path style="fill:#FFCF21;" d="M447.886,480.744L311.62,459.806c13.171,15.817,44.888,44.115,48.535,60.713
				c2.599,11.826,3.487,28.521,4.426,46.198c1.171,22.026,2.498,27.012,7.533,40.443c4.692,12.509,30.613,19.188,74.974,19.345
				l0.002,0.008c0.269,0,0.529-0.003,0.797-0.004c0.268,0,0.528,0.004,0.797,0.004l0.002-0.008
				c44.361-0.157,70.282-6.836,74.974-19.345c5.035-13.43,6.363-18.417,7.533-40.443c0.938-17.677,1.827-34.372,4.425-46.198
				c3.647-16.598,35.365-44.896,48.536-60.713L447.886,480.744z"/>
			<path style="fill:#91704F;" d="M514.416,600.854c0,6.001-29.302,10.866-65.446,10.866c-36.146,0-65.448-4.864-65.448-10.866
				c0-6.001,29.301-10.866,65.448-10.866C485.113,589.988,514.416,594.853,514.416,600.854z"/>
			
				<ellipse transform="matrix(0.7071 -0.7071 0.7071 0.7071 -111.052 416.9539)" style="fill:#FFCF21;" cx="447.782" cy="342.529" rx="179.706" ry="179.706"/>
			<g>
				<path style="fill:#FFFFFF;" d="M397.273,429.747h-3.871c8.402,57.87,13.389,127.101,15.753,166.245
					c0.387,6.401,0.704,11.998,0.952,16.608c1.255,0.204,2.553,0.398,3.895,0.581c-0.261-4.847-0.599-10.848-1.018-17.784
					C410.613,556.277,405.641,487.551,397.273,429.747z"/>
				<path style="fill:#58595B;" d="M485.243,516.505c-1.914,29.49-2.68,56.793-2.964,76.911c-0.099,7.087-0.14,13.282-0.151,18.364
					c1.334-0.167,2.62-0.349,3.871-0.537c0.015-4.843,0.059-10.665,0.158-17.287c0.489-33.648,2.355-87.942,8.763-139.453h-3.991
					C488.602,473.34,486.703,494.012,485.243,516.505z"/>
				<g>
					<path style="fill:#2CA2DD;" d="M428.673,514.053c-2.551-0.448-4.979,1.255-5.426,3.805c-0.45,2.551,1.255,4.982,3.803,5.43
						c2.552,0.449,4.978-1.257,5.43-3.805C432.928,516.932,431.223,514.5,428.673,514.053z"/>
					<path style="fill:#2CA2DD;" d="M466.264,521.984l-7.575-1.332c0.391-6.016-0.995-11.815-3.748-16.829l6.303-4.421
						c1.531-1.072,1.903-3.184,0.827-4.715c-1.071-1.53-3.18-1.901-4.711-0.827l-6.307,4.418c-3.774-4.299-8.754-7.581-14.542-9.262
						l1.331-7.575c0.325-1.843-0.907-3.597-2.747-3.921c-1.84-0.323-3.594,0.908-3.919,2.749l-1.331,7.575
						c-6.016-0.395-11.815,0.994-16.83,3.749l-4.42-6.306c-1.077-1.533-3.183-1.903-4.713-0.828
						c-1.534,1.073-1.906,3.182-0.83,4.714l4.419,6.304c-4.3,3.776-7.583,8.754-9.263,14.542l-7.575-1.331
						c-1.841-0.323-3.596,0.907-3.921,2.747c-0.325,1.841,0.907,3.597,2.75,3.92l7.574,1.332c-0.393,6.016,0.995,11.813,3.748,16.83
						l-6.302,4.42c-1.533,1.073-1.903,3.184-0.83,4.715c1.072,1.531,3.184,1.901,4.715,0.827l6.306-4.42
						c3.774,4.3,8.751,7.581,14.54,9.263l-1.332,7.575c-0.321,1.842,0.907,3.596,2.751,3.92c1.841,0.323,3.595-0.907,3.918-2.748
						l1.331-7.575c6.018,0.393,11.812-0.995,16.825-3.749l4.422,6.305c1.077,1.532,3.184,1.904,4.717,0.83
						c1.532-1.073,1.901-3.184,0.826-4.715l-4.419-6.305c4.299-3.775,7.581-8.752,9.262-14.543l7.576,1.333
						c1.842,0.323,3.597-0.907,3.92-2.748C469.337,524.062,468.104,522.307,466.264,521.984z M426.219,528.023
						c-5.165-0.907-8.615-5.831-7.709-10.997c0.908-5.165,5.832-8.619,10.999-7.71c5.166,0.909,8.615,5.832,7.707,10.997
						C436.309,525.48,431.384,528.932,426.219,528.023z"/>
				</g>
				<g>
					<path style="fill:#4B7A22;" d="M448.72,247.007c-2.369-0.77-4.912,0.525-5.679,2.895c-0.771,2.368,0.525,4.912,2.894,5.682
						c2.368,0.77,4.911-0.528,5.682-2.895C452.387,250.319,451.089,247.774,448.72,247.007z"/>
					<path style="fill:#4B7A22;" d="M483.461,259.612l-7.035-2.286c1.18-5.678,0.64-11.387-1.31-16.533l6.598-3.364
						c1.603-0.816,2.24-2.777,1.422-4.38c-0.815-1.601-2.775-2.238-4.375-1.421l-6.6,3.361c-3.019-4.602-7.321-8.398-12.609-10.776
						l2.286-7.037c0.557-1.711-0.379-3.548-2.089-4.103c-1.71-0.557-3.548,0.381-4.103,2.091l-2.286,7.036
						c-5.679-1.184-11.388-0.639-16.536,1.311l-3.361-6.601c-0.821-1.605-2.776-2.24-4.379-1.422
						c-1.607,0.815-2.242,2.775-1.422,4.378l3.358,6.599c-4.601,3.019-8.395,7.32-10.777,12.607l-7.037-2.287
						c-1.708-0.554-3.547,0.381-4.1,2.092c-0.56,1.709,0.377,3.548,2.09,4.102l7.036,2.287c-1.182,5.677-0.638,11.387,1.309,16.534
						l-6.598,3.363c-1.604,0.816-2.241,2.778-1.424,4.38c0.815,1.603,2.778,2.239,4.381,1.422l6.598-3.362
						c3.018,4.602,7.318,8.397,12.606,10.776l-2.287,7.036c-0.553,1.711,0.38,3.547,2.094,4.104c1.71,0.555,3.547-0.38,4.101-2.09
						l2.286-7.037c5.68,1.183,11.384,0.64,16.531-1.311l3.363,6.6c0.821,1.603,2.778,2.241,4.383,1.423
						c1.605-0.816,2.239-2.776,1.42-4.38l-3.361-6.599c4.602-3.019,8.395-7.318,10.777-12.608l7.036,2.287
						c1.71,0.556,3.55-0.381,4.101-2.09C486.109,262.004,485.171,260.166,483.461,259.612z M462.847,238.762
						c2.1-1.053,4.659-0.203,5.71,1.898c1.053,2.102,0.201,4.658-1.9,5.711c-2.1,1.053-4.656,0.203-5.71-1.898
						C459.895,242.37,460.744,239.815,462.847,238.762z M449.439,231.46c0.741-2.231,3.15-3.438,5.38-2.696
						c2.232,0.741,3.437,3.151,2.695,5.381c-0.74,2.231-3.15,3.438-5.38,2.697C449.904,236.099,448.7,233.689,449.439,231.46z
						 M424.797,243.803c0.743-2.23,3.152-3.437,5.383-2.695c2.227,0.741,3.435,3.15,2.693,5.38c-0.741,2.231-3.149,3.436-5.38,2.696
						C425.262,248.442,424.055,246.032,424.797,243.803z M431.812,263.828c-2.103,1.052-4.661,0.203-5.711-1.898
						c-1.054-2.101-0.204-4.658,1.897-5.711c2.102-1.053,4.659-0.203,5.71,1.898C434.762,260.219,433.915,262.775,431.812,263.828z
						 M434.795,235.776c-1.053-2.102-0.202-4.658,1.899-5.711c2.103-1.053,4.657-0.203,5.71,1.899c1.053,2.1,0.204,4.658-1.896,5.71
						C438.407,238.728,435.848,237.878,434.795,235.776z M445.219,271.13c-0.743,2.23-3.151,3.437-5.38,2.696
						c-2.232-0.742-3.438-3.152-2.695-5.382c0.739-2.231,3.149-3.437,5.378-2.695C444.754,266.49,445.958,268.899,445.219,271.13z
						 M444.509,259.984c-4.799-1.558-7.424-6.712-5.866-11.512c1.56-4.798,6.713-7.426,11.512-5.866
						c4.799,1.56,7.423,6.712,5.864,11.511C454.46,258.917,449.304,261.542,444.509,259.984z M457.963,272.524
						c-2.1,1.052-4.658,0.203-5.71-1.899c-1.053-2.103-0.204-4.659,1.896-5.713c2.102-1.053,4.658-0.201,5.712,1.9
						C460.914,268.914,460.064,271.471,457.963,272.524z M469.859,258.786c-0.743,2.23-3.151,3.437-5.383,2.694
						c-2.229-0.741-3.435-3.15-2.693-5.381c0.739-2.231,3.149-3.437,5.381-2.695C469.395,254.146,470.602,256.556,469.859,258.786z"
						/>
				</g>
				<g>
					<path style="fill:#EF4136;" d="M527.473,286.176c-14.737-1.728-28.088,8.823-29.815,23.564
						c-1.726,14.74,8.821,28.09,23.562,29.818c14.739,1.728,28.088-8.822,29.816-23.562
						C552.763,301.254,542.215,287.903,527.473,286.176z"/>
					<path style="fill:#EF4136;" d="M583.81,314.358l-10.046-1.177c0.037-5.056-0.7-9.973-2.106-14.625l9.29-3.973
						c2.765-1.18,4.048-4.379,2.864-7.139c-1.181-2.762-4.376-4.043-7.14-2.864l-9.301,3.977c-2.51-4.434-5.69-8.459-9.424-11.927
						l6.02-8.131c1.788-2.413,1.278-5.82-1.134-7.608c-2.413-1.788-5.82-1.28-7.611,1.134l-6.011,8.124
						c-4.201-2.448-8.813-4.302-13.741-5.434l1.176-10.045c0.351-2.984-1.789-5.686-4.771-6.036
						c-2.981-0.351-5.685,1.786-6.036,4.769l-1.175,10.045c-5.056-0.039-9.973,0.699-14.626,2.109l-3.974-9.293
						c-1.181-2.762-4.378-4.043-7.141-2.864c-2.763,1.182-4.043,4.379-2.86,7.14l3.975,9.302c-4.437,2.51-8.458,5.692-11.927,9.425
						l-8.131-6.019c-2.415-1.787-5.82-1.28-7.609,1.134c-1.789,2.414-1.279,5.821,1.134,7.609l8.126,6.014
						c-2.448,4.201-4.302,8.814-5.433,13.741l-10.047-1.177c-2.984-0.35-5.686,1.787-6.037,4.769
						c-0.346,2.985,1.788,5.686,4.771,6.035l10.047,1.177c-0.039,5.056,0.699,9.972,2.106,14.624l-9.293,3.975
						c-2.761,1.18-4.045,4.379-2.862,7.14c1.18,2.762,4.377,4.042,7.139,2.862l9.299-3.978c2.513,4.435,5.693,8.462,9.428,11.929
						l-6.02,8.132c-1.788,2.412-1.279,5.82,1.134,7.607c2.413,1.789,5.82,1.281,7.611-1.134l6.011-8.124
						c4.2,2.448,8.811,4.303,13.741,5.435l-1.178,10.043c-0.349,2.984,1.789,5.687,4.773,6.036c2.981,0.349,5.684-1.786,6.035-4.769
						l1.176-10.046c5.057,0.04,9.972-0.699,14.626-2.109l3.972,9.293c1.183,2.763,4.378,4.045,7.14,2.862
						c2.763-1.179,4.044-4.378,2.862-7.138l-3.977-9.303c4.439-2.51,8.461-5.692,11.928-9.426l8.132,6.02
						c2.413,1.786,5.82,1.281,7.608-1.134c1.788-2.414,1.277-5.822-1.135-7.609l-8.124-6.016c2.446-4.2,4.302-8.813,5.433-13.74
						l10.045,1.177c2.985,0.349,5.687-1.786,6.039-4.769C588.928,317.411,586.793,314.708,583.81,314.358z M519.779,351.855
						c-21.534-2.523-36.943-22.024-34.421-43.558c2.524-21.533,22.026-36.943,43.56-34.419
						c21.533,2.523,36.939,22.024,34.418,43.557C560.815,338.969,541.314,354.379,519.779,351.855z"/>
				</g>
				<g>
					<path style="fill:#FFFFFF;" d="M478.964,362.374l-6.57-0.417c-0.032-2.193-0.173-4.359-0.391-6.504l6.476-1.194
						c3.28-0.604,5.446-3.752,4.841-7.027c-0.608-3.277-3.75-5.443-7.029-4.839l-6.457,1.191c-0.807-3.033-1.787-5.999-2.953-8.87
						l5.845-2.936c2.978-1.496,4.182-5.122,2.686-8.1c-1.498-2.978-5.123-4.179-8.101-2.683l-5.867,2.947
						c-1.242-2.048-2.599-4.02-4.027-5.935l4.958-4.346c2.503-2.198,2.756-6.008,0.556-8.515c-2.195-2.503-6.01-2.755-8.513-0.557
						l-4.962,4.349c-1.593-1.549-3.254-3.025-4.975-4.429l3.74-5.432c1.892-2.746,1.198-6.502-1.546-8.392
						c-2.745-1.89-6.499-1.197-8.392,1.548l-3.735,5.422c-2.395-1.386-4.871-2.641-7.424-3.762l2.153-6.217
						c1.089-3.15-0.578-6.586-3.728-7.676c-3.146-1.089-6.586,0.577-7.671,3.727l-2.154,6.216c-2.417-0.626-4.872-1.153-7.378-1.538
						l0.487-6.546c0.249-3.324-2.246-6.218-5.569-6.465c-3.323-0.247-6.218,2.246-6.465,5.569l-0.489,6.562
						c-3.048,0.016-6.051,0.219-9.005,0.585l-1.336-6.44c-0.678-3.263-3.872-5.36-7.136-4.681c-3.258,0.677-5.357,3.87-4.68,7.133
						l1.337,6.438c-2.132,0.621-4.216,1.346-6.267,2.147l-2.876-5.927c-1.457-2.997-5.064-4.249-8.063-2.794
						c-2.996,1.455-4.251,5.065-2.791,8.062l2.875,5.929c-2.408,1.42-4.732,2.969-6.96,4.639l-4.361-4.952
						c-2.203-2.499-6.014-2.743-8.516-0.538c-2.498,2.202-2.74,6.015-0.54,8.514l4.36,4.95c-1.735,1.793-3.395,3.66-4.95,5.617
						l-5.462-3.658c-2.768-1.853-6.517-1.113-8.371,1.656c-1.851,2.768-1.112,6.517,1.658,8.37l5.44,3.644
						c-1.176,2.094-2.243,4.253-3.219,6.466l-6.188-2.155c-3.149-1.095-6.589,0.568-7.686,3.715
						c-1.093,3.146,0.569,6.584,3.717,7.682l6.213,2.163c-0.704,2.716-1.281,5.483-1.685,8.309l-6.559-0.416
						c-3.325-0.21-6.193,2.313-6.403,5.641c-0.211,3.324,2.311,6.191,5.638,6.402l6.57,0.418c0.037,2.19,0.175,4.356,0.392,6.499
						l-6.477,1.194c-3.278,0.606-5.444,3.751-4.841,7.03c0.605,3.275,3.751,5.441,7.029,4.839l6.455-1.19
						c0.809,3.033,1.789,5.999,2.956,8.871l-5.846,2.938c-2.977,1.495-4.182,5.12-2.684,8.1c1.494,2.976,5.12,4.178,8.098,2.683
						l5.867-2.946c1.243,2.046,2.6,4.018,4.028,5.932l-4.958,4.346c-2.504,2.197-2.755,6.009-0.557,8.516
						c2.196,2.505,6.008,2.755,8.515,0.557l4.958-4.349c1.593,1.549,3.255,3.025,4.978,4.43l-3.741,5.431
						c-1.89,2.745-1.197,6.503,1.549,8.393c2.742,1.889,6.499,1.196,8.391-1.547l3.734-5.422c2.395,1.385,4.871,2.64,7.424,3.761
						l-2.154,6.215c-1.09,3.149,0.578,6.585,3.727,7.677c3.15,1.09,6.585-0.579,7.676-3.727l2.152-6.213
						c2.415,0.624,4.872,1.152,7.377,1.538l-0.486,6.546c-0.249,3.323,2.246,6.217,5.569,6.464c3.32,0.247,6.217-2.246,6.465-5.57
						l0.488-6.56c3.048-0.016,6.052-0.218,9.007-0.585l1.337,6.439c0.677,3.263,3.869,5.358,7.132,4.682
						c3.263-0.677,5.36-3.872,4.682-7.135l-1.338-6.438c2.132-0.622,4.217-1.346,6.267-2.147l2.876,5.927
						c1.455,2.997,5.065,4.248,8.062,2.794c2.998-1.456,4.25-5.066,2.792-8.063l-2.877-5.929c2.41-1.42,4.733-2.969,6.963-4.639
						l4.36,4.952c2.203,2.501,6.013,2.742,8.514,0.542c2.503-2.204,2.742-6.018,0.54-8.517l-4.359-4.951
						c1.734-1.793,3.394-3.659,4.949-5.617l5.463,3.658c2.768,1.854,6.516,1.112,8.372-1.654c1.853-2.77,1.112-6.517-1.659-8.372
						l-5.439-3.644c1.175-2.094,2.244-4.254,3.218-6.466l6.189,2.155c3.148,1.096,6.589-0.567,7.685-3.713
						c1.093-3.148-0.57-6.585-3.716-7.682l-6.213-2.164c0.705-2.716,1.281-5.485,1.685-8.311l6.558,0.416
						c3.324,0.21,6.192-2.315,6.405-5.638C484.812,365.451,482.287,362.584,478.964,362.374z M407.612,298.281
						c18.988,3.159,35.181,14.441,44.968,30.114l-26.205,13.161c-5.027-6.874-12.393-11.931-20.94-14.009L407.612,298.281z
						 M395.575,297.411l-2.174,29.233c-9.182,0.826-17.404,5.044-23.389,11.398l-24.368-16.319
						C357.499,307.141,375.454,297.757,395.575,297.411z M335.453,387.225c-2.709-6.899-4.285-14.36-4.501-22.157l0.754-12.043
						c1.181-7.61,3.663-14.78,7.209-21.285l24.377,16.326c-0.983,2.168-1.762,4.448-2.308,6.818l-0.762,12.042
						c0.249,2.455,0.736,4.841,1.446,7.132L335.453,387.225z M385.848,428.115c-18.989-3.159-35.181-14.441-44.969-30.113
						l26.208-13.164c5.025,6.876,12.393,11.932,20.938,14.012L385.848,428.115z M396.546,379.606
						c-9.061-0.102-16.327-7.531-16.223-16.593c0.101-9.062,7.532-16.326,16.595-16.224c9.061,0.102,16.323,7.531,16.221,16.593
						C413.036,372.445,405.61,379.708,396.546,379.606z M397.884,428.984l2.175-29.232c9.183-0.826,17.404-5.044,23.388-11.398
						l24.366,16.317C435.96,419.254,418.006,428.641,397.884,428.984z M461.751,373.372c-1.181,7.608-3.661,14.778-7.207,21.282
						l-24.377-16.325c0.984-2.168,1.762-4.446,2.308-6.816l0.761-12.042c-0.247-2.456-0.735-4.842-1.445-7.132l26.214-13.166
						c2.707,6.899,4.285,14.359,4.5,22.156L461.751,373.372z"/>
					<path style="fill:#FFFFFF;" d="M396.823,355.082c-4.482-0.051-8.16,3.542-8.21,8.025c-0.049,4.482,3.543,8.157,8.027,8.208
						c4.483,0.05,8.157-3.543,8.209-8.025C404.897,358.807,401.305,355.132,396.823,355.082z"/>
				</g>
				<g>
					<path style="fill:#58595B;" d="M481.275,418.866c-3.833-0.481-7.331,2.238-7.811,6.072c-0.479,3.834,2.24,7.33,6.075,7.81
						c3.835,0.48,7.329-2.239,7.809-6.073C487.829,422.841,485.11,419.345,481.275,418.866z"/>
					<path style="fill:#FFCF21;" d="M525.557,303.204c-5.336-0.669-10.206,3.117-10.874,8.453
						c-0.667,5.337,3.117,10.204,8.456,10.872c5.338,0.667,10.202-3.117,10.871-8.455
						C534.68,308.738,530.896,303.871,525.557,303.204z"/>
					<path style="fill:#58595B;" d="M545.629,428.959l-7.29-0.912c0.173-4.326-0.13-8.578-0.884-12.697l7.063-1.932
						c2.647-0.724,4.205-3.459,3.481-6.107c-0.72-2.647-3.457-4.207-6.104-3.482l-7.078,1.936
						c-1.495-4.049-3.427-7.903-5.756-11.493l5.797-4.507c2.166-1.685,2.557-4.808,0.873-6.974
						c-1.687-2.168-4.809-2.558-6.976-0.874l-5.795,4.508c-2.877-3.112-6.098-5.911-9.614-8.339l3.635-6.374
						c1.359-2.384,0.527-5.42-1.856-6.779c-2.384-1.361-5.421-0.53-6.78,1.854l-3.631,6.363c-3.839-1.771-7.926-3.133-12.205-4.041
						l0.913-7.289c0.341-2.725-1.593-5.21-4.315-5.549c-2.722-0.341-5.208,1.59-5.548,4.314l-0.915,7.289
						c-4.323-0.172-8.575,0.129-12.694,0.883l-1.931-7.062c-0.726-2.649-3.462-4.208-6.107-3.484
						c-2.649,0.725-4.208,3.458-3.481,6.107l1.935,7.076c-4.048,1.496-7.902,3.429-11.494,5.757l-4.507-5.796
						c-1.686-2.168-4.809-2.558-6.975-0.874c-2.168,1.685-2.56,4.808-0.873,6.976l4.506,5.797c-3.109,2.876-5.907,6.098-8.338,9.613
						l-6.371-3.634c-2.386-1.361-5.422-0.53-6.782,1.855c-1.359,2.382-0.531,5.419,1.856,6.779l6.362,3.63
						c-1.774,3.84-3.134,7.925-4.041,12.203l-7.291-0.912c-2.722-0.34-5.209,1.592-5.55,4.315c-0.341,2.723,1.593,5.209,4.316,5.549
						l7.29,0.911c-0.174,4.326,0.13,8.58,0.883,12.697l-7.065,1.934c-2.647,0.725-4.204,3.458-3.483,6.106
						c0.725,2.648,3.457,4.207,6.107,3.483l7.078-1.937c1.494,4.049,3.428,7.904,5.757,11.493l-5.797,4.507
						c-2.166,1.685-2.558,4.808-0.873,6.975c1.682,2.166,4.808,2.558,6.975,0.872l5.794-4.507c2.879,3.111,6.101,5.908,9.614,8.339
						l-3.635,6.374c-1.363,2.384-0.531,5.419,1.857,6.78c2.381,1.358,5.415,0.529,6.777-1.855l3.631-6.364
						c3.839,1.772,7.926,3.134,12.203,4.042l-0.913,7.289c-0.339,2.723,1.593,5.208,4.318,5.549c2.72,0.341,5.208-1.591,5.548-4.315
						l0.912-7.289c4.326,0.171,8.579-0.13,12.697-0.884l1.932,7.063c0.725,2.649,3.46,4.208,6.107,3.483
						c2.647-0.724,4.206-3.458,3.481-6.107l-1.935-7.076c4.049-1.496,7.901-3.428,11.491-5.757l4.51,5.795
						c1.684,2.168,4.806,2.557,6.974,0.873c2.166-1.685,2.556-4.807,0.873-6.975l-4.507-5.796c3.11-2.876,5.908-6.098,8.339-9.613
						l6.372,3.635c2.388,1.359,5.422,0.529,6.779-1.855c1.36-2.385,0.534-5.419-1.853-6.779l-6.366-3.629
						c1.775-3.841,3.136-7.927,4.044-12.207l7.29,0.913c2.724,0.341,5.208-1.592,5.548-4.315
						C550.284,431.785,548.353,429.3,545.629,428.959z M444.04,400.956c3.266-4.783,9.796-6.013,14.583-2.744
						c4.784,3.269,6.011,9.801,2.742,14.583c-3.268,4.786-9.801,6.014-14.583,2.745C441.996,412.269,440.769,405.74,444.04,400.956z
						 M454.459,449.529c-5.249,2.456-11.496,0.19-13.95-5.059c-2.453-5.246-0.192-11.494,5.059-13.95
						c5.248-2.455,11.495-0.189,13.95,5.058C461.974,440.826,459.709,447.075,454.459,449.529z M485.877,382.099
						c5.75,0.72,9.827,5.965,9.108,11.715c-0.719,5.75-5.964,9.828-11.714,9.109c-5.749-0.719-9.828-5.964-9.108-11.715
						C474.883,385.459,480.13,381.38,485.877,382.099z M474.936,469.514c-5.747-0.719-9.827-5.966-9.108-11.715
						c0.72-5.75,5.968-9.829,11.716-9.11c5.749,0.719,9.828,5.965,9.108,11.715C485.932,466.154,480.689,470.233,474.936,469.514z
						 M478.785,438.775c-7.161-0.896-12.243-7.43-11.348-14.592c0.897-7.162,7.434-12.243,14.594-11.347
						c7.164,0.897,12.242,7.43,11.348,14.593C492.48,434.591,485.948,439.672,478.785,438.775z M506.352,402.082
						c5.249-2.456,11.495-0.19,13.952,5.058c2.454,5.249,0.189,11.495-5.058,13.951c-5.247,2.455-11.497,0.191-13.953-5.058
						C498.841,410.785,501.105,404.537,506.352,402.082z M516.774,450.655c-3.269,4.786-9.799,6.014-14.583,2.746
						c-4.784-3.27-6.011-9.8-2.743-14.585c3.268-4.782,9.8-6.013,14.583-2.743C518.814,439.342,520.043,445.874,516.774,450.655z"/>
				</g>
				<g>
					
						<rect x="489.348" y="283.348" transform="matrix(0.5933 -0.805 0.805 0.5933 -34.4955 522.0234)" style="fill:#EF4136;" width="20" height="23.601"/>
				</g>
				<g>
					
						<rect x="530.367" y="277.149" transform="matrix(0.5633 -0.8262 0.8262 0.5633 0.1551 574.5917)" style="fill:#EF4136;" width="26.627" height="20"/>
				</g>
				<g>
					
						<rect x="537.181" y="316.275" transform="matrix(0.5735 -0.8192 0.8192 0.5735 -35.7335 588.3241)" style="fill:#EF4136;" width="20" height="24.413"/>
				</g>
				<g>
					
						<rect x="494.755" y="325.483" transform="matrix(0.5487 -0.836 0.836 0.5487 -51.418 575.7198)" style="fill:#EF4136;" width="25.517" height="20"/>
				</g>
			</g>
			<path style="fill:#9B3248;" d="M509.377,652.349c2.355,5.619,5.329,22.311-9.198,27.502c-14.528,5.191-50.94,4.079-50.94,4.079
				s42.908,0.803,48.776-25.054L509.377,652.349z"/>
			<path style="fill:#9B3248;" d="M509.928,681.678c2.355,5.619,5.329,22.311-9.198,27.502c-14.528,5.191-50.94,4.079-50.94,4.079
				s42.908,0.803,48.776-25.054L509.928,681.678z"/>
			<path style="fill:#9B3248;" d="M509.928,710.295c2.355,5.619,5.329,22.311-9.198,27.502c-14.528,5.191-50.94,4.079-50.94,4.079
				s42.908,0.803,48.776-25.054L509.928,710.295z"/>
		</g>
	</g>
	<path style="fill:#9C7F61;" d="M522.056,640.112c0-0.979-0.243-26.311-0.643-27.894c-3.081,5.215-37.342,12.822-72.546,12.83
		c-35.316,0.008-71.576-7.598-74.667-12.83c-0.4,1.583-0.642,26.916-0.642,27.894c0,6.002,37.835,13.968,75.31,13.911
		C485.635,653.967,522.056,646,522.056,640.112z"/>
	<path style="opacity:0.7;fill:#FFB699;" d="M483.673,629.781c0.059-2.33-0.878-4.589-2.64-6.707
		c-9.991,1.207-21.029,1.971-32.166,1.974c-20.353,0.005-41.006-2.521-55.456-5.662c-2.802,2.403-4.41,5.109-4.483,8.005
		c-0.272,10.791,20.716,20.074,46.88,20.734C461.97,648.785,483.401,640.572,483.673,629.781z"/>
	
		<linearGradient id="SVGID_00000085250187484724369290000002372965250640694913_" gradientUnits="userSpaceOnUse" x1="381.074" y1="160.0108" x2="484.3945" y2="495.8031">
		<stop  offset="0" style="stop-color:#FFFFFF"/>
		<stop  offset="0.5429" style="stop-color:#808080"/>
	</linearGradient>
	<path style="fill:url(#SVGID_00000085250187484724369290000002372965250640694913_);" d="M537.066,245.004
		c21.935,87.346-117.398,171.898-201.467,122.258c-65.742-38.819-42.914-144.084,63.09-180.222
		C478.652,165.367,527.746,207.888,537.066,245.004L537.066,245.004z"/>
	<g>
		<path style="opacity:0.3;fill:none;stroke:#FFE6B3;stroke-width:19.9765;stroke-miterlimit:10;" d="M627.488,342.529
			c0-99.249-80.457-179.706-179.706-179.706S268.076,243.28,268.076,342.529c0,44.819,16.411,85.802,43.546,117.278l-0.002,0
			c13.171,15.817,44.888,44.115,48.535,60.713c2.599,11.826,3.487,28.521,4.426,46.198c1.171,22.026,2.498,27.012,7.533,40.443
			c4.692,12.509,30.613,19.188,74.974,19.345l0.002,0.008c0.269,0,0.529-0.003,0.797-0.004c0.268,0,0.528,0.004,0.797,0.004
			l0.002-0.008c44.361-0.157,70.282-6.836,74.974-19.345c5.035-13.43,6.363-18.417,7.533-40.443
			c0.938-17.677,1.827-34.372,4.425-46.198c3.647-16.598,35.365-44.896,48.536-60.713l-0.242,0.037
			C611.065,428.363,627.488,387.364,627.488,342.529z"/>
		<path style="fill:#FFE6B3;" d="M447.782,172.811c45.333,0,87.953,17.654,120.009,49.709
			c32.056,32.056,49.709,74.675,49.709,120.009c0,40.679-14.615,80.025-41.152,110.79l-6.435,7.46
			c-2.344,2.522-4.91,5.219-7.547,7.989c-19.492,20.479-33.519,36.025-36.504,49.607c-2.778,12.642-3.684,29.726-4.644,47.811
			c-1.132,21.294-2.367,25.344-6.911,37.465c-0.194,0.516-5.437,12.651-65.657,12.865l-0.673,0.003l-0.853-0.003
			c-60.221-0.213-65.464-12.348-65.657-12.863c-4.545-12.122-5.78-16.172-6.911-37.466c-0.96-18.089-1.867-35.174-4.644-47.812
			c-2.984-13.582-17.012-29.128-36.504-49.607c-4.204-4.418-8.229-8.646-11.46-12.282l-2.76-3.202
			c-26.518-30.76-41.123-70.094-41.123-110.756c0-45.333,17.654-87.953,49.709-120.009
			C359.829,190.465,402.449,172.811,447.782,172.811L447.782,172.811z M447.782,162.823c-99.249,0-179.706,80.457-179.706,179.706
			c0,44.818,16.411,85.802,43.546,117.278l-0.002-0.001c13.171,15.817,44.889,44.116,48.536,60.713
			c2.599,11.826,3.487,28.521,4.426,46.198c1.17,22.026,2.498,27.012,7.533,40.443c4.692,12.509,30.613,19.188,74.974,19.345
			l0.002,0.008c0.269,0,0.529-0.003,0.797-0.004c0.268,0,0.528,0.004,0.797,0.004l0.002-0.008
			c44.361-0.157,70.282-6.836,74.974-19.345c5.035-13.431,6.363-18.417,7.533-40.443c0.938-17.677,1.827-34.372,4.425-46.198
			c3.647-16.598,35.365-44.896,48.536-60.713l-0.242,0.037c27.154-31.48,43.577-72.479,43.577-117.314
			C627.488,243.28,547.031,162.823,447.782,162.823L447.782,162.823z"/>
	</g>
	<path style="opacity:0.7;fill:#FFB699;" d="M448.867,664.723c-22.473,0.034-45.062-2.818-59.556-6.4
		c2.916,9.608,22.528,17.451,46.496,18.055c22.277,0.562,41.113-5.311,46.388-13.729
		C471.86,663.912,460.383,664.706,448.867,664.723z"/>
	<path style="opacity:0.7;fill:#FFB699;" d="M448.867,694.605c-22.569,0.034-45.249-2.842-59.732-6.446
		c2.232,9.892,22.184,18.065,46.672,18.682c22.828,0.576,42.048-5.603,46.76-14.356
		C472.135,693.774,460.521,694.587,448.867,694.605z"/>
	<path style="opacity:0.7;fill:#FFB699;" d="M448.867,724.049c-22.387,0.034-44.884-2.796-59.38-6.359
		c3.461,9.365,22.794,16.933,46.321,17.527c21.807,0.55,40.314-5.066,46.034-13.199
		C471.597,723.254,460.251,724.031,448.867,724.049z"/>
	<path style="fill:#E04C5A;" d="M519.969,666.103c-0.808-2.87-2.075-6.919-3.382-10.974c-1.635,0.689-3.613,1.375-5.868,2.045
		c1.273,5.794,1.357,12.264-2.648,16.562c6.821-1.898,11.317-3.898,12.343-5.634c0.05,0.198,0.089,0.381,0.135,0.572
		C520.472,668.035,520.31,667.311,519.969,666.103z"/>
	<path style="fill:#E04C5A;" d="M521.867,626.667c-1.635,0.689-6.923,1.959-9.178,2.629c1.273,5.794,1.357,12.264-2.648,16.562
		c6.821-1.898,10.61-2.883,11.636-4.619c0.05,0.198-0.234-0.847,0.38-0.873C521.979,639.729,521.905,631.259,521.867,626.667z"/>
	<path style="fill:#E04C5A;" d="M520.147,695.912c-0.808-2.87-2.075-6.919-3.382-10.974c-1.635,0.689-3.613,1.375-5.868,2.045
		c1.273,5.793,1.357,12.264-2.648,16.562c6.821-1.898,11.317-3.898,12.343-5.635c0.05,0.198,0.089,0.381,0.135,0.572
		C520.649,697.845,520.488,697.12,520.147,695.912z"/>
	<path style="fill:#E04C5A;" d="M373.548,723.591c0.808-2.87,2.075-6.919,3.382-10.974c1.635,0.689,3.613,1.375,5.868,2.045
		c-1.273,5.793-1.357,12.264,2.648,16.562c-6.821-1.898-11.317-3.898-12.343-5.634c-0.05,0.198-0.09,0.381-0.135,0.572
		C373.046,725.524,373.207,724.799,373.548,723.591z"/>
	<path style="fill:#E04C5A;" d="M373.751,665.67c0.843-2.995,2.166-7.221,3.529-11.453c1.706,0.719,3.771,1.435,6.124,2.134
		c-1.329,6.046-1.416,12.799,2.764,17.285c-7.119-1.981-11.811-4.068-12.881-5.88c-0.052,0.207-0.093,0.398-0.141,0.597
		C373.227,667.687,373.396,666.931,373.751,665.67z"/>
	<path style="fill:#E04C5A;" d="M373.816,627.065c1.635,0.689,6.923,1.959,9.178,2.629c-1.273,5.794-1.357,12.264,2.648,16.562
		c-6.821-1.898-10.61-2.883-11.636-4.619c-0.05,0.198,0.234-0.847-0.38-0.873C373.704,640.127,373.778,631.656,373.816,627.065z"/>
	<path style="fill:#E04C5A;" d="M373.548,695.117c0.808-2.87,2.075-6.919,3.382-10.974c1.635,0.689,3.613,1.375,5.868,2.045
		c-1.273,5.794-1.357,12.264,2.648,16.562c-6.821-1.898-11.317-3.898-12.343-5.635c-0.05,0.198-0.09,0.381-0.135,0.572
		C373.046,697.05,373.207,696.325,373.548,695.117z"/>
	<path style="fill:#82334D;" d="M521.057,730.056c0-0.979-0.243-2.338-0.643-3.921c-3.081,5.215-37.342,12.822-72.546,12.83
		c-35.316,0.008-71.576-7.598-74.667-12.83c-0.4,1.583-0.642,2.942-0.642,3.921c0,6.002,37.835,13.968,75.31,13.911
		C484.636,743.911,521.057,735.945,521.057,730.056z"/>
	<path style="fill:#82334D;" d="M521.057,701.157c0-0.979-0.243-2.338-0.643-3.921c-3.081,5.215-37.342,12.821-72.546,12.83
		c-35.316,0.008-71.576-7.598-74.667-12.83c-0.4,1.583-0.642,2.942-0.642,3.921c0,6.002,37.835,13.968,75.31,13.911
		C484.636,715.012,521.057,707.046,521.057,701.157z"/>
	<path style="fill:#82334D;" d="M521.057,672.021c0-0.979-0.243-2.338-0.643-3.921c-3.081,5.215-37.342,12.822-72.546,12.83
		c-35.316,0.008-71.576-7.598-74.667-12.83c-0.4,1.583-0.642,2.942-0.642,3.921c0,6.002,37.835,13.968,75.31,13.911
		C484.636,685.876,521.057,677.91,521.057,672.021z"/>
	<path style="fill:#9B3248;" d="M448.867,638.387c28.921-0.044,60.712-5.601,72.967-10.836c-0.107-5.616-0.249-10.659-0.42-11.337
		c-3.081,5.215-37.342,12.822-72.547,12.83c-35.316,0.008-71.576-7.598-74.667-12.83c-0.167,0.661-0.307,5.477-0.413,10.927
		C385.32,632.562,418.52,638.433,448.867,638.387z"/>
	<path style="fill:#FFE6B3;" d="M527.195,610.369c0-0.979-0.245-10.329-0.648-11.912c-3.108,5.215-42.71,13.821-78.224,13.829
		c-35.627,0.008-76.237-8.597-79.355-13.829c-0.404,1.583-0.648,10.933-0.648,11.912c0,6.002,42.199,14.967,80.004,14.91
		C485.415,625.223,527.195,616.257,527.195,610.369z"/>
	<path style="fill:#9C7F61;" d="M527.195,614.928c0-0.979-0.245-10.329-0.648-11.912c-3.108,5.215-42.71,13.821-78.224,13.829
		c-35.627,0.008-76.237-8.597-79.355-13.829c-0.404,1.583-0.648,10.933-0.648,11.912c0,6.002,42.199,14.967,80.004,14.91
		C485.415,629.782,527.195,620.816,527.195,614.928z"/>
	<path style="fill:#9B3248;" d="M512.763,622.546c2.355,5.619,5.329,22.311-9.198,27.502c-14.528,5.191-50.94,4.078-50.94,4.078
		s42.908,0.803,48.776-25.054L512.763,622.546z"/>
	<path style="fill:#82334D;" d="M448.867,653.024c-36.978,0.056-74.28-7.698-75.263-13.67c-0.03,2.644-0.046,4.502-0.046,4.753
		c0,6.002,37.835,13.968,75.31,13.911c36.768-0.056,73.189-8.023,73.189-13.911c0-0.251-0.016-2.107-0.046-4.749
		C521.027,645.221,485.128,652.969,448.867,653.024z"/>
	<g>
		<g>
			<path style="fill:#FFCF21;" d="M297.522,191.603c-0.905,0-1.81-0.352-2.491-1.052l-31.775-32.669
				c-1.338-1.375-1.308-3.575,0.068-4.913c1.376-1.338,3.576-1.307,4.913,0.068l31.774,32.669c1.338,1.376,1.308,3.575-0.068,4.913
				C299.269,191.276,298.395,191.603,297.522,191.603z"/>
		</g>
		<g>
			<path style="fill:#FFCF21;" d="M624.123,538.308c-0.94,0-1.877-0.379-2.562-1.127l-30.606-33.395
				c-1.296-1.415-1.201-3.612,0.214-4.909c1.414-1.296,3.612-1.201,4.908,0.214l30.606,33.395c1.296,1.415,1.201,3.612-0.214,4.909
				C625.803,538.006,624.962,538.308,624.123,538.308z"/>
		</g>
		<g>
			<path style="fill:#FFCF21;" d="M239.822,289.566c-0.313,0-0.631-0.043-0.948-0.132l-43.59-12.331
				c-1.846-0.522-2.919-2.442-2.397-4.289c0.522-1.847,2.443-2.92,4.289-2.397l43.59,12.33c1.846,0.522,2.919,2.442,2.397,4.289
				C242.73,288.567,241.337,289.566,239.822,289.566z"/>
		</g>
		<g>
			<path style="fill:#FFCF21;" d="M696.045,426.548c-0.346,0-0.698-0.052-1.045-0.162l-43.208-13.619
				c-1.83-0.577-2.846-2.528-2.269-4.358c0.577-1.83,2.525-2.846,4.358-2.269l43.208,13.619c1.83,0.577,2.846,2.528,2.269,4.358
				C698.891,425.6,697.521,426.548,696.045,426.548z"/>
		</g>
		<g>
			<path style="fill:#FFCF21;" d="M195.943,413.796c-1.553,0-2.967-1.048-3.365-2.622c-0.471-1.86,0.655-3.75,2.515-4.221
				l43.917-11.117c1.859-0.47,3.749,0.655,4.22,2.515c0.471,1.86-0.655,3.75-2.515,4.22l-43.918,11.117
				C196.512,413.761,196.226,413.796,195.943,413.796z"/>
		</g>
		<g>
			<path style="fill:#FFCF21;" d="M659.159,303.07c-1.593,0-3.029-1.103-3.388-2.723c-0.415-1.873,0.766-3.728,2.639-4.144
				l44.231-9.81c1.873-0.418,3.728,0.766,4.144,2.639c0.416,1.873-0.766,3.729-2.639,4.144l-44.232,9.81
				C659.662,303.043,659.408,303.07,659.159,303.07z"/>
		</g>
		<g>
			<path style="fill:#FFCF21;" d="M264.012,531.008c-0.905,0-1.81-0.352-2.491-1.052c-1.338-1.375-1.308-3.575,0.068-4.913
				l32.469-31.581c1.376-1.338,3.576-1.307,4.913,0.068c1.338,1.375,1.308,3.575-0.068,4.913l-32.469,31.581
				C265.759,530.681,264.885,531.008,264.012,531.008z"/>
		</g>
		<g>
			<path style="fill:#FFCF21;" d="M609.735,203.668c-0.94,0-1.877-0.379-2.562-1.127c-1.296-1.415-1.201-3.612,0.214-4.909
				l33.398-30.609c1.413-1.296,3.612-1.201,4.908,0.214c1.296,1.415,1.201,3.612-0.214,4.909l-33.398,30.609
				C611.415,203.366,610.573,203.668,609.735,203.668z"/>
		</g>
		<g>
			<path style="fill:#FFCF21;" d="M516.337,141.569c-0.346,0-0.698-0.052-1.045-0.162c-1.83-0.577-2.846-2.528-2.269-4.358
				l13.618-43.205c0.577-1.83,2.527-2.847,4.358-2.269c1.83,0.577,2.846,2.528,2.269,4.358l-13.618,43.205
				C519.183,140.621,517.813,141.569,516.337,141.569z"/>
		</g>
		<g>
			<path style="fill:#FFCF21;" d="M403.359,135.066c-1.593,0-3.029-1.103-3.388-2.723l-9.808-44.224
				c-0.415-1.873,0.766-3.729,2.639-4.144c1.872-0.417,3.729,0.766,4.144,2.639l9.808,44.224c0.415,1.873-0.766,3.729-2.639,4.144
				C403.862,135.039,403.608,135.066,403.359,135.066z"/>
		</g>
	</g>
	<g>
		<g>
			<path style="fill:#FFCF21;" d="M452.563,115.273c-0.016,0-0.032,0-0.049,0c-1.918-0.026-3.452-1.603-3.426-3.521l1.037-75.493
				c0.026-1.918,1.583-3.443,3.522-3.426c1.918,0.026,3.452,1.603,3.426,3.521l-1.037,75.493
				C456.01,113.749,454.46,115.273,452.563,115.273z"/>
		</g>
		<g>
			<path style="fill:#FFCF21;" d="M332.763,146.26c-1.226,0-2.414-0.65-3.047-1.8l-36.145-65.704
				c-0.925-1.681-0.311-3.794,1.37-4.719c1.68-0.924,3.793-0.312,4.718,1.369l36.145,65.704c0.925,1.681,0.311,3.794-1.37,4.718
				C333.903,146.121,333.329,146.26,332.763,146.26z"/>
		</g>
		<g>
			<path style="fill:#FFCF21;" d="M589.581,623.12c-1.246,0-2.45-0.672-3.074-1.85l-33.892-64.05
				c-0.898-1.696-0.25-3.798,1.446-4.696c1.696-0.897,3.798-0.25,4.696,1.446l33.892,64.05c0.898,1.696,0.25,3.798-1.446,4.696
				C590.685,622.99,590.128,623.12,589.581,623.12z"/>
		</g>
		<g>
			<path style="fill:#FFCF21;" d="M245.735,233.347c-0.619,0-1.245-0.165-1.811-0.512l-63.503-38.887
				c-1.636-1.002-2.15-3.141-1.148-4.777c1.002-1.636,3.14-2.152,4.777-1.148l63.503,38.887c1.636,1.002,2.15,3.141,1.148,4.777
				C248.046,232.757,246.904,233.347,245.735,233.347z"/>
		</g>
		<g>
			<path style="fill:#FFCF21;" d="M707.124,517.856c-0.625,0-1.257-0.169-1.828-0.522l-62.025-38.468
				c-1.63-1.011-2.133-3.153-1.122-4.784c1.011-1.631,3.152-2.132,4.784-1.121l62.025,38.467c1.63,1.011,2.133,3.153,1.122,4.783
				C709.422,517.273,708.287,517.856,707.124,517.856z"/>
		</g>
		<g>
			<path style="fill:#FFCF21;" d="M214.854,351.382c-0.033,0-0.066-0.001-0.099-0.001l-73.697-2.059
				c-1.918-0.053-3.429-1.652-3.376-3.57c0.054-1.918,1.657-3.44,3.57-3.376l73.697,2.059c1.918,0.053,3.429,1.652,3.376,3.57
				C218.272,349.89,216.727,351.382,214.854,351.382z"/>
		</g>
		<g>
			<path style="fill:#FFCF21;" d="M757.228,367.018c-0.035,0-0.069,0-0.105-0.001l-73.663-2.173
				c-1.918-0.057-3.427-1.657-3.37-3.575c0.056-1.918,1.643-3.427,3.575-3.37l73.663,2.173c1.918,0.057,3.427,1.657,3.37,3.575
				C760.643,365.529,759.099,367.018,757.228,367.018z"/>
		</g>
		<g>
			<path style="fill:#FFCF21;" d="M182.487,502.716c-1.232,0-2.427-0.658-3.056-1.817c-0.916-1.686-0.291-3.795,1.396-4.711
				l64.171-34.837c1.686-0.915,3.795-0.291,4.711,1.396c0.915,1.686,0.29,3.795-1.395,4.711l-64.171,34.837
				C183.615,502.581,183.047,502.716,182.487,502.716z"/>
		</g>
		<g>
			<path style="fill:#FFCF21;" d="M659.478,245.171c-1.239,0-2.438-0.664-3.064-1.833c-0.907-1.691-0.271-3.797,1.419-4.704
				l65.587-35.184c1.69-0.907,3.796-0.272,4.704,1.419c0.907,1.691,0.271,3.797-1.419,4.704l-65.587,35.184
				C660.595,245.038,660.032,245.171,659.478,245.171z"/>
		</g>
		<g>
			<path style="fill:#FFCF21;" d="M293.707,614.563c-0.613,0-1.234-0.162-1.797-0.503c-1.641-0.994-2.165-3.131-1.171-4.772
				l37.56-61.99c0.995-1.641,3.131-2.165,4.771-1.171c1.641,0.994,2.165,3.131,1.171,4.771l-37.559,61.99
				C296.028,613.966,294.881,614.563,293.707,614.563z"/>
		</g>
		<g>
			<path style="fill:#FFCF21;" d="M577.529,153.219c-0.63,0-1.268-0.171-1.841-0.531c-1.626-1.019-2.118-3.163-1.099-4.789
				l39.808-63.527c1.019-1.626,3.164-2.118,4.789-1.099c1.626,1.019,2.118,3.163,1.099,4.789l-39.808,63.527
				C579.817,152.642,578.686,153.219,577.529,153.219z"/>
		</g>
	</g>
</g>
</svg>
